<svg width="162" height="62" viewBox="0 0 162 62" fill="none" xmlns="http://www.w3.org/2000/svg">
<path d="M112.996 8.18543C113.443 8.2131 113.572 7.17356 114.649 6.41071C117.274 4.55693 125.266 4.53717 130.853 5.85339C135.758 7.00953 138.257 9.06687 139.883 10.4088C141.266 11.5491 142.022 12.5689 142.434 13.5393C142.763 14.314 143.194 15.399 142.434 16.6697C142.148 17.148 141.768 17.5255 141.47 17.7824C142.261 17.8041 143.394 17.8614 144.71 18.0255C152.596 19.0156 156.839 22.6066 158.085 23.6599C164.561 29.1383 161.215 35.0534 160.498 36.3202C159.84 37.4842 157.936 40.3775 153.051 42.8934C152.314 43.2728 146.105 46.429 143.397 45.6404C143.131 45.5634 142.951 45.4626 142.841 45.3875C143.213 46.176 143.57 47.3223 143.307 48.678C142.567 52.4824 137.251 56.4054 129.325 57.7295C128.052 57.941 120.741 59.1624 115.111 57.1426C113.486 56.5596 112.459 55.8718 111.848 55.3797C111.397 56.0161 108.612 59.7671 100.898 61.2572C94.9548 62.4035 86.6531 62.1031 83.656 59.9647C82.0537 58.8205 81.7364 56.9864 80.8588 57.026C80.4161 57.0457 80.181 57.524 80.0909 57.6821C79.0997 59.4094 73.2545 61.6584 66.6453 61.9628C60.7021 62.2375 53.8382 60.9806 51.2682 58.5537C49.8656 57.2295 50.1124 55.7335 48.4709 55.4983C46.3436 55.192 44.9724 57.5734 40.7804 58.3185C35.037 59.3402 28.3181 56.526 25.8656 55.4983C23.8754 54.6643 16.6355 51.6306 17.7089 48.4448C18.2496 46.846 20.4592 46.4705 20.04 45.3895C19.3152 43.5159 11.7226 44.1661 7.22507 41.8637C-1.69952 37.2905 -0.0658237 30.8221 0.470905 28.7015C1.95964 22.8121 9.0664 16.4326 15.1506 16.5946C17.6815 16.6618 18.8881 17.8298 20.3103 17.48C23.4249 16.7132 17.7011 11.0886 22.9117 7.50361C25.2662 5.88304 28.8979 5.33757 30.1986 5.13994C38.7158 3.85732 44.2789 7.1874 49.7598 5.58856C52.7647 4.71108 51.942 3.46206 54.8764 2.06876C59.4053 -0.0794894 67.7932 -0.75934 74.418 1.01341C79.3975 2.34544 81.5875 4.59646 82.3279 5.47196C82.3789 5.10437 82.5395 4.57274 83.0449 3.99764C84.6511 2.17548 88.373 1.47389 90.2221 1.12408C91.3818 0.904712 99.1859 -0.494514 106.062 1.81381C107.19 2.19327 110.896 3.43834 112.103 5.60833C112.8 6.86724 112.494 8.15579 112.996 8.18543Z" fill="url(#paint0_linear)" fill-opacity="0.9"/>
<defs>
<linearGradient id="paint0_linear" x1="0.000777683" y1="31.0015" x2="162.003" y2="31.0015" gradientUnits="userSpaceOnUse">
<stop offset="0.1272" stop-color="#FFBED1"/>
<stop offset="0.3125" stop-color="white"/>
<stop offset="0.7988" stop-color="white"/>
<stop offset="1" stop-color="#B2DFF7"/>
</linearGradient>
</defs>
</svg>
