<svg width="1152" height="224" viewBox="0 0 1152 224" fill="none" xmlns="http://www.w3.org/2000/svg">
<path d="M-15 0.472456C-3.42114 2.81791 20.6561 7.82156 24.3341 9.07247C28.012 10.3234 40.1698 7.76943 45.789 6.3361C58.5598 4.51186 88.2902 1.64518 105.045 4.77246C121.801 7.89974 138.25 12.33 144.38 14.1543H148.466C157.15 12.33 177.686 8.75974 190.354 9.07247C203.023 9.38519 221.856 10.7664 229.688 11.4179L246.035 14.9361L257.784 18.0634L260.849 19.627C264.255 18.5846 273.927 16.187 285.369 14.9361C296.812 13.6852 307.846 12.8513 311.932 12.5907C319.595 12.33 338.393 12.4343 352.288 14.9361C365.809 17.3707 366.882 18.522 365.675 18.8223C376.458 16.4698 401.064 11.888 414.099 12.1997C427.176 12.5125 445.77 14.1543 453.433 14.9361C458.371 15.7179 469.064 17.5943 472.334 18.8452C475.603 20.0961 476.761 19.3664 476.931 18.8452L491.234 14.9361C498.556 13.1119 517.491 10.0106 534.655 12.1997C551.819 14.3888 567.008 16.2391 572.457 16.8907L580.63 14.9361C591.868 13.8937 617.716 11.887 631.202 12.1997C644.688 12.5125 665.428 16.4997 674.112 18.4543L692.502 13.7634C698.292 12.4604 714.57 9.7761 733.369 9.46338C752.167 9.15065 764.359 10.6361 768.105 11.4179L790.582 13.7634L808.972 9.46338C817.826 7.37853 840.643 3.44337 861.077 4.38155C881.51 5.31973 893.089 6.59671 896.324 7.11792L911.649 10.6361L921.866 7.11792C925.271 5.68458 936.884 2.427 956.091 0.863366C975.299 -0.700273 988.614 0.21185 992.871 0.863366L1015.35 3.59969L1039.87 8.68151L1042.42 10.2452C1042.59 8.81182 1048.96 5.7106 1073.07 4.77242C1097.18 3.83424 1110.36 4.38151 1113.94 4.77242L1133.86 7.50879L1157.36 12.1997H1164V253H-11.935L-15 0.472456Z" fill="#E2F1F8"/>
<path d="M-15 0.472456C-3.42114 2.81791 20.6561 7.82156 24.3341 9.07247C28.012 10.3234 40.1698 7.76943 45.789 6.3361C58.5598 4.51186 88.2902 1.64518 105.045 4.77246C121.801 7.89974 138.25 12.33 144.38 14.1543H148.466C157.15 12.33 177.686 8.75974 190.354 9.07247C203.023 9.38519 221.856 10.7664 229.688 11.4179L246.035 14.9361L257.784 18.0634L260.849 19.627C264.255 18.5846 273.927 16.187 285.369 14.9361C296.812 13.6852 307.846 12.8513 311.932 12.5907C319.595 12.33 338.393 12.4343 352.288 14.9361C365.809 17.3707 366.882 18.522 365.675 18.8223C376.458 16.4698 401.064 11.888 414.099 12.1997C427.176 12.5125 445.77 14.1543 453.433 14.9361C458.371 15.7179 469.064 17.5943 472.334 18.8452C475.603 20.0961 476.761 19.3664 476.931 18.8452L491.234 14.9361C498.556 13.1119 517.491 10.0106 534.655 12.1997C551.819 14.3888 567.008 16.2391 572.457 16.8907L580.63 14.9361C591.868 13.8937 617.716 11.887 631.202 12.1997C644.688 12.5125 665.428 16.4997 674.112 18.4543L692.502 13.7634C698.292 12.4604 714.57 9.7761 733.369 9.46338C752.167 9.15065 764.359 10.6361 768.105 11.4179L790.582 13.7634L808.972 9.46338C817.826 7.37853 840.643 3.44337 861.077 4.38155C881.51 5.31973 893.089 6.59671 896.324 7.11792L911.649 10.6361L921.866 7.11792C925.271 5.68458 936.884 2.427 956.091 0.863366C975.299 -0.700273 988.614 0.21185 992.871 0.863366L1015.35 3.59969L1039.87 8.68151L1042.42 10.2452C1042.59 8.81182 1048.96 5.7106 1073.07 4.77242C1097.18 3.83424 1110.36 4.38151 1113.94 4.77242L1133.86 7.50879L1157.36 12.1997H1164V253H-11.935L-15 0.472456Z" fill="url(#paint0_linear)"/>
<path d="M-15 0.472456C-3.42114 2.81791 20.6561 7.82156 24.3341 9.07247C28.012 10.3234 40.1698 7.76943 45.789 6.3361C58.5598 4.51186 88.2902 1.64518 105.045 4.77246C121.801 7.89974 138.25 12.33 144.38 14.1543H148.466C157.15 12.33 177.686 8.75974 190.354 9.07247C203.023 9.38519 221.856 10.7664 229.688 11.4179L246.035 14.9361L257.784 18.0634L260.849 19.627C264.255 18.5846 273.927 16.187 285.369 14.9361C296.812 13.6852 307.846 12.8513 311.932 12.5907C319.595 12.33 338.393 12.4343 352.288 14.9361C365.809 17.3707 366.882 18.522 365.675 18.8223C376.458 16.4698 401.064 11.888 414.099 12.1997C427.176 12.5125 445.77 14.1543 453.433 14.9361C458.371 15.7179 469.064 17.5943 472.334 18.8452C475.603 20.0961 476.761 19.3664 476.931 18.8452L491.234 14.9361C498.556 13.1119 517.491 10.0106 534.655 12.1997C551.819 14.3888 567.008 16.2391 572.457 16.8907L580.63 14.9361C591.868 13.8937 617.716 11.887 631.202 12.1997C644.688 12.5125 665.428 16.4997 674.112 18.4543L692.502 13.7634C698.292 12.4604 714.57 9.7761 733.369 9.46338C752.167 9.15065 764.359 10.6361 768.105 11.4179L790.582 13.7634L808.972 9.46338C817.826 7.37853 840.643 3.44337 861.077 4.38155C881.51 5.31973 893.089 6.59671 896.324 7.11792L911.649 10.6361L921.866 7.11792C925.271 5.68458 936.884 2.427 956.091 0.863366C975.299 -0.700273 988.614 0.21185 992.871 0.863366L1015.35 3.59969L1039.87 8.68151L1042.42 10.2452C1042.59 8.81182 1048.96 5.7106 1073.07 4.77242C1097.18 3.83424 1110.36 4.38151 1113.94 4.77242L1133.86 7.50879L1157.36 12.1997H1164V253H-11.935L-15 0.472456Z" fill="url(#paint1_linear)"/>
<defs>
<linearGradient id="paint0_linear" x1="574.5" y1="0" x2="574.5" y2="253" gradientUnits="userSpaceOnUse">
<stop stop-color="#F0F8FB" stop-opacity="0.474359"/>
<stop offset="0.0001" stop-color="white"/>
<stop offset="0.416667" stop-color="#E2F1F8" stop-opacity="0"/>
</linearGradient>
<linearGradient id="paint1_linear" x1="574.5" y1="0" x2="574.5" y2="253" gradientUnits="userSpaceOnUse">
<stop stop-color="#F0F8FB" stop-opacity="0.474359"/>
<stop offset="0.0729167" stop-color="white"/>
<stop offset="0.223958" stop-color="#E2F1F8" stop-opacity="0"/>
<stop offset="0.692708" stop-color="white"/>
</linearGradient>
</defs>
</svg>
