<svg width="157" height="69" viewBox="0 0 157 69" fill="none" xmlns="http://www.w3.org/2000/svg">
<path d="M109.508 9.1096C109.941 9.14039 110.067 7.98348 111.111 7.1345C113.655 5.07142 121.4 5.04943 126.814 6.51426C131.568 7.80093 133.99 10.0905 135.566 11.584C136.906 12.853 137.639 13.988 138.038 15.0679C138.357 15.9301 138.774 17.1376 138.038 18.5518C137.76 19.0841 137.392 19.5042 137.104 19.7901C137.871 19.8143 138.968 19.8781 140.244 20.0606C147.887 21.1625 151.998 25.1589 153.206 26.3312C159.482 32.4281 156.24 39.011 155.545 40.4208C154.907 41.7163 153.062 44.9363 148.327 47.7362C147.613 48.1585 141.595 51.671 138.972 50.7934C138.713 50.7076 138.539 50.5955 138.432 50.5119C138.793 51.3895 139.139 52.6651 138.884 54.1739C138.167 58.4079 133.014 62.7738 125.333 64.2474C124.1 64.4827 117.015 65.842 111.559 63.5942C109.983 62.9453 108.988 62.1799 108.396 61.6322C107.959 62.3405 105.26 66.515 97.7838 68.1734C92.0241 69.4491 83.9786 69.1148 81.0741 66.735C79.5212 65.4615 79.2136 63.4204 78.3631 63.4644C77.9341 63.4864 77.7063 64.0186 77.619 64.1946C76.6584 66.1169 70.9935 68.6199 64.5883 68.9586C58.8285 69.2643 52.1765 67.8655 49.6858 65.1646C48.3266 63.6909 48.5658 62.026 46.9749 61.7642C44.9132 61.4233 43.5843 64.0736 39.5218 64.9028C33.9556 66.0399 27.4441 62.9079 25.0673 61.7642C23.1385 60.8361 16.122 57.4599 17.1623 53.9144C17.6863 52.1351 19.8277 51.7172 19.4214 50.5141C18.719 48.429 11.3608 49.1526 7.00207 46.5903C-1.64706 41.5008 -0.0637921 34.302 0.456371 31.942C1.89916 25.3877 8.78657 18.2879 14.683 18.4682C17.1358 18.543 18.3052 19.8429 19.6834 19.4536C22.7019 18.6002 17.1547 12.3406 22.2045 8.35079C24.4864 6.54725 28.006 5.9402 29.2666 5.72026C37.5208 4.29282 42.9123 7.99888 48.2241 6.21953C51.1362 5.24298 50.3389 3.85293 53.1827 2.30233C57.5718 -0.088464 65.7008 -0.845072 72.1212 1.12783C76.9469 2.61025 79.0693 5.11541 79.7869 6.08977C79.8363 5.68067 79.992 5.08902 80.4818 4.44898C82.0385 2.4211 85.6454 1.6403 87.4375 1.251C88.5614 1.00686 96.1246 -0.550347 102.788 2.0186C103.882 2.44089 107.473 3.82654 108.643 6.24153C109.319 7.64257 109.022 9.07661 109.508 9.1096Z" fill="url(#paint0_linear)" fill-opacity="0.9"/>
<defs>
<linearGradient id="paint0_linear" x1="0.000753681" y1="34.5017" x2="157.003" y2="34.5017" gradientUnits="userSpaceOnUse">
<stop offset="0.1272" stop-color="#FFBED1"/>
<stop offset="0.3125" stop-color="white"/>
<stop offset="0.7988" stop-color="white"/>
<stop offset="1" stop-color="#B2DFF7"/>
</linearGradient>
</defs>
</svg>
