<svg width="1152" height="35" viewBox="0 0 1152 35" fill="none" xmlns="http://www.w3.org/2000/svg">
<path d="M41.9755 14.902L14.0775 2.23529L-1.80001 10.4741L-5.61523 11.1765V34.2745L19.8212 20.1176L41.9755 32.0392L64.9504 20.1176L89.5663 32.0392L115.823 19.3725L138.798 32.0392L164.235 20.1176L189.671 32.0392L215.107 20.1176L238.903 32.0392L264.339 20.1176L290.596 32.0392L311.93 18.6275L336.546 32.0392L361.162 20.1176L384.957 33.5294L411.214 20.1176L434.189 33.5294L458.805 20.1176L484.241 32.0392L509.678 20.1176L535.114 32.7843L559.73 20.1176L585.167 33.5294L609.782 20.1176L632.757 31.2941L658.194 18.6275L659.835 20.1176L681.989 31.2941L707.426 18.6275L730.4 33.5294L755.016 20.1176L780.453 31.2941L805.069 18.6275L831.326 33.5294L853.48 20.1176L878.096 33.5294L903.532 20.1176L925.687 33.5294L951.944 20.1176L980.662 31.2941L1002 17.8824L1026.61 32.7843L1051.23 20.1176L1075.84 32.7843L1101.28 20.1176L1126.72 32.7843L1150.51 20.1176L1175.95 32.7843L1194 25.3333V2.98039L1175.95 14.1569L1150.51 0L1126.72 14.1569L1101.28 2.23529L1075.84 14.1569L1051.23 2.23529L1029.89 14.1569L1002 2.23529L976.559 11.9216L954.405 2.23529L928.969 14.1569L903.532 2.23529L878.096 14.1569L853.48 2.23529L831.326 14.1569L807.53 0.745098L780.453 14.1569L755.016 0.745098L730.4 11.9216L707.426 0.745098L683.63 14.902L658.194 0.745098L635.219 14.902L609.782 0.745098L585.167 14.902L559.73 0.745098L536.755 14.902L509.678 2.23529L485.882 14.902L461.266 2.23529L435.83 12.6667L411.214 2.23529L388.239 12.6667H384.957L361.162 2.23529L339.828 14.902L313.571 2.23529L285.673 14.902L264.339 2.23529L242.185 14.902L215.107 2.23529L189.671 14.902L164.235 2.23529L141.26 14.902L117.464 2.23529L93.6689 14.902L66.5914 2.23529L41.9755 14.902Z" fill="white"/>
</svg>
