<svg width="205" height="78" viewBox="0 0 205 78" fill="none" xmlns="http://www.w3.org/2000/svg">
<path d="M5.56 62.28V10.92C5.56 9 6.49333 7.53333 8.36 6.52C10.2267 5.50667 11.7467 5.02667 12.92 5.08C14.7867 5.4 16.2533 6.17333 17.32 7.4C18.44 8.62666 18.9733 10.3333 18.92 12.52L18.76 24.92L26.36 10.52C27.9067 6.62667 30.6533 5.29333 34.6 6.52C38.0667 8.17333 39.64 10.36 39.32 13.08C39.32 13.88 38.8133 15.4267 37.8 17.72L28.2 36.04L41.08 59C41.4533 59.5333 41.7467 60.0667 41.96 60.6C42.1733 61.1333 42.3067 61.6133 42.36 62.04C42.4667 62.4667 42.52 62.8133 42.52 63.08C42.52 63.3467 42.4933 63.64 42.44 63.96V64.44C42.44 64.8133 42.2267 65.4 41.8 66.2C41.4267 66.9467 40.6 67.7467 39.32 68.6C38.04 69.4 36.4667 69.7467 34.6 69.64C34.2267 69.6933 33.8 69.64 33.32 69.48C32.84 69.3733 32.2267 69.0533 31.48 68.52C30.7867 67.9333 30.2 67.16 29.72 66.2L19.08 46.84L18.68 46.68L18.84 59.24C19.1067 61.64 19.0267 63.4267 18.6 64.6C17.7467 66.36 16.7067 67.5333 15.48 68.12C14.3067 68.6533 12.6267 68.8933 10.44 68.84C9.05333 68.6267 7.85333 67.8267 6.84 66.44C5.88 65.0533 5.45333 63.6667 5.56 62.28ZM47.7869 8.2C49.2802 6.81333 50.9602 6.12 52.8269 6.12C54.6935 6.12 56.3469 6.81333 57.7869 8.2C59.2802 9.53333 60.0269 11.24 60.0269 13.32V62.36C60.0269 64.44 59.2802 66.1733 57.7869 67.56C56.3469 68.8933 54.6935 69.56 52.8269 69.56C50.9602 69.56 49.3869 68.8933 48.1069 67.56C46.8802 66.2267 46.2669 64.4933 46.2669 62.36L45.6269 13.32C45.6269 11.24 46.3469 9.53333 47.7869 8.2ZM65.0469 17.24C63.8202 15.8533 63.2069 14.28 63.2069 12.52C63.2069 10.76 63.8202 9.26666 65.0469 8.04C66.3269 6.76 67.8469 6.12 69.6069 6.12L89.0469 6.84C89.9002 6.84 90.9935 6.97333 92.3269 7.24C93.6602 7.45333 95.4469 8.14666 97.6869 9.32C99.9802 10.4933 101.9 12.04 103.447 13.96C106.38 18.0133 107.554 22.8133 106.967 28.36C106.647 29.96 106.14 31.56 105.447 33.16C104.754 34.7067 103.687 36.3333 102.247 38.04C100.86 39.7467 99.1802 41.2133 97.2069 42.44C95.2869 43.6667 92.8069 44.68 89.7669 45.48C86.7269 46.2267 83.3669 46.52 79.6869 46.36C77.8735 45.9867 76.3269 45.1333 75.0469 43.8C73.8202 42.4667 73.2069 40.8933 73.2069 39.08C73.2069 37.3733 73.9535 35.88 75.4469 34.6C76.9402 33.32 78.5935 32.68 80.4069 32.68C82.1135 32.7867 83.6869 32.7333 85.1269 32.52C86.5669 32.3067 87.7135 32.04 88.5669 31.72C89.4735 31.3467 90.3002 30.8933 91.0469 30.36C91.7935 29.7733 92.3269 29.2933 92.6469 28.92C92.9669 28.4933 93.2602 28.0667 93.5269 27.64C93.7935 27.2133 93.9535 26.9733 94.0069 26.92V25.4C94.0069 24.8133 93.9535 24.3067 93.8469 23.88C93.7402 23.4 93.6335 23.08 93.5269 22.92L93.3669 22.68C91.7135 20.92 90.0335 19.96 88.3269 19.8H69.6069C67.7935 19.4267 66.2735 18.5733 65.0469 17.24ZM76.8869 8.27999C78.9135 8.27999 80.5935 8.92 81.9269 10.2C83.3135 11.4267 84.0069 12.92 84.0069 14.68V62.92C84.3802 64.6267 83.9535 66.12 82.7269 67.4C81.5535 68.68 80.0869 69.32 78.3269 69.32C76.1935 69.32 74.4335 68.7067 73.0469 67.48C71.7135 66.2533 71.0469 64.7333 71.0469 62.92L70.3269 15.4C70.3269 13.64 70.9669 12.0133 72.2469 10.52C73.5802 9.02666 75.1269 8.27999 76.8869 8.27999ZM86.8869 32.68C88.7535 31.6667 90.4869 31.4 92.0869 31.88C93.6869 32.36 95.0469 33.3733 96.1669 34.92L110.967 62.52C111.98 63.96 112.247 65.56 111.767 67.32C111.287 69.08 110.3 70.3333 108.807 71.08C106.994 72.0933 105.26 72.36 103.607 71.88C102.007 71.4 100.62 70.3867 99.4469 68.84L84.0069 41.24C83.2602 39.8 83.1802 38.2 83.7669 36.44C84.4069 34.68 85.4469 33.4267 86.8869 32.68ZM113.718 13.8C113.611 11.9867 114.171 10.44 115.398 9.16C116.678 7.88 118.385 7.18666 120.518 7.08L136.038 6.2C142.118 5.88 147.691 8.14666 152.758 13C154.518 14.7067 155.771 17.2667 156.518 20.68C157.318 24.0933 157.131 27.3733 155.958 30.52C154.785 33.6667 152.625 35.5067 149.478 36.04C151.718 36.68 153.665 38.12 155.318 40.36C157.025 42.5467 158.011 45.6133 158.278 49.56C158.385 51.64 158.198 53.6933 157.718 55.72C157.291 57.7467 156.545 59.7467 155.478 61.72C154.411 63.6933 152.811 65.3467 150.678 66.68C148.598 67.96 146.118 68.68 143.238 68.84L142.438 68.92L128.358 69.72C126.491 69.7733 124.838 69.1333 123.398 67.8C121.745 66.4667 120.891 64.8667 120.838 63C120.785 60.3867 120.731 57.2667 120.678 53.64C120.678 49.96 120.651 43.6667 120.598 34.76C120.545 25.8 120.571 21.0267 120.678 20.44C118.811 20.5467 117.211 20.04 115.878 18.92C114.598 17.8 113.905 16.36 113.798 14.6L113.718 13.8ZM133.878 19.72C134.091 22.28 134.278 25.5867 134.438 29.64C136.305 29.64 137.878 29.4533 139.158 29.08C140.491 28.7067 141.451 28.2533 142.038 27.72C142.625 27.1333 143.025 26.5467 143.238 25.96C143.505 25.32 143.611 24.7867 143.558 24.36C143.558 23.9333 143.505 23.6133 143.398 23.4C142.918 22.5467 142.385 21.8533 141.798 21.32C141.211 20.7333 140.545 20.3333 139.798 20.12C139.051 19.9067 138.438 19.7733 137.958 19.72C137.531 19.6667 136.918 19.6133 136.118 19.56C135.158 19.6133 134.411 19.6667 133.878 19.72ZM135.238 43.72L134.678 43.8C134.358 47.7467 134.331 51.7733 134.598 55.88L138.838 55.64C139.691 55.48 140.438 55.2933 141.078 55.08C141.771 54.8133 142.331 54.5733 142.758 54.36C143.185 54.0933 143.531 53.7733 143.798 53.4C144.118 53.0267 144.358 52.7067 144.518 52.44C144.678 52.1733 144.785 51.8533 144.838 51.48C144.891 51.1067 144.918 50.84 144.918 50.68C144.971 50.4667 144.998 50.2267 144.998 49.96L144.918 49.48C144.865 48.2 144.438 47.1333 143.638 46.28C142.891 45.4267 141.931 44.84 140.758 44.52C139.585 44.1467 138.571 43.9067 137.718 43.8C136.865 43.6933 136.038 43.6667 135.238 43.72ZM165.966 7.32C167.726 6.57333 169.486 6.65333 171.246 7.56C173.06 8.46666 174.153 9.85333 174.526 11.72C176.446 16.4667 178.313 20.9467 180.126 25.16L186.606 11.72C187.246 9.90666 188.5 8.65333 190.366 7.96C192.286 7.21333 194.126 7.21333 195.886 7.96C197.753 9.13333 198.953 10.5467 199.486 12.2C200.073 13.8533 199.86 15.5867 198.846 17.4L185.166 45.96C184.793 47.08 183.966 48.04 182.686 48.84C181.406 49.64 180.073 49.88 178.686 49.56C177.3 49.56 176.1 49.1867 175.086 48.44C174.073 47.64 173.406 46.5467 173.086 45.16L161.646 15.88C161.22 14.0667 161.38 12.36 162.126 10.76C162.926 9.16 164.206 8.01333 165.966 7.32ZM172.206 42.36C172.206 40.4933 172.9 38.84 174.286 37.4C175.673 35.96 177.406 35.24 179.486 35.24C181.3 35.56 182.82 36.3867 184.046 37.72C185.273 39.0533 185.886 40.6 185.886 42.36V63C185.886 64.8667 185.22 66.4133 183.886 67.64C182.553 68.8667 180.82 69.48 178.686 69.48C176.926 69.48 175.406 68.8667 174.126 67.64C172.846 66.36 172.206 64.8133 172.206 63V42.36Z" fill="white"/>
<path d="M5.56 62.28V10.92C5.56 9 6.49333 7.53333 8.36 6.52C10.2267 5.50667 11.7467 5.02667 12.92 5.08C14.7867 5.4 16.2533 6.17333 17.32 7.4C18.44 8.62666 18.9733 10.3333 18.92 12.52L18.76 24.92L26.36 10.52C27.9067 6.62667 30.6533 5.29333 34.6 6.52C38.0667 8.17333 39.64 10.36 39.32 13.08C39.32 13.88 38.8133 15.4267 37.8 17.72L28.2 36.04L41.08 59C41.4533 59.5333 41.7467 60.0667 41.96 60.6C42.1733 61.1333 42.3067 61.6133 42.36 62.04C42.4667 62.4667 42.52 62.8133 42.52 63.08C42.52 63.3467 42.4933 63.64 42.44 63.96V64.44C42.44 64.8133 42.2267 65.4 41.8 66.2C41.4267 66.9467 40.6 67.7467 39.32 68.6C38.04 69.4 36.4667 69.7467 34.6 69.64C34.2267 69.6933 33.8 69.64 33.32 69.48C32.84 69.3733 32.2267 69.0533 31.48 68.52C30.7867 67.9333 30.2 67.16 29.72 66.2L19.08 46.84L18.68 46.68L18.84 59.24C19.1067 61.64 19.0267 63.4267 18.6 64.6C17.7467 66.36 16.7067 67.5333 15.48 68.12C14.3067 68.6533 12.6267 68.8933 10.44 68.84C9.05333 68.6267 7.85333 67.8267 6.84 66.44C5.88 65.0533 5.45333 63.6667 5.56 62.28ZM47.7869 8.2C49.2802 6.81333 50.9602 6.12 52.8269 6.12C54.6935 6.12 56.3469 6.81333 57.7869 8.2C59.2802 9.53333 60.0269 11.24 60.0269 13.32V62.36C60.0269 64.44 59.2802 66.1733 57.7869 67.56C56.3469 68.8933 54.6935 69.56 52.8269 69.56C50.9602 69.56 49.3869 68.8933 48.1069 67.56C46.8802 66.2267 46.2669 64.4933 46.2669 62.36L45.6269 13.32C45.6269 11.24 46.3469 9.53333 47.7869 8.2ZM65.0469 17.24C63.8202 15.8533 63.2069 14.28 63.2069 12.52C63.2069 10.76 63.8202 9.26666 65.0469 8.04C66.3269 6.76 67.8469 6.12 69.6069 6.12L89.0469 6.84C89.9002 6.84 90.9935 6.97333 92.3269 7.24C93.6602 7.45333 95.4469 8.14666 97.6869 9.32C99.9802 10.4933 101.9 12.04 103.447 13.96C106.38 18.0133 107.554 22.8133 106.967 28.36C106.647 29.96 106.14 31.56 105.447 33.16C104.754 34.7067 103.687 36.3333 102.247 38.04C100.86 39.7467 99.1802 41.2133 97.2069 42.44C95.2869 43.6667 92.8069 44.68 89.7669 45.48C86.7269 46.2267 83.3669 46.52 79.6869 46.36C77.8735 45.9867 76.3269 45.1333 75.0469 43.8C73.8202 42.4667 73.2069 40.8933 73.2069 39.08C73.2069 37.3733 73.9535 35.88 75.4469 34.6C76.9402 33.32 78.5935 32.68 80.4069 32.68C82.1135 32.7867 83.6869 32.7333 85.1269 32.52C86.5669 32.3067 87.7135 32.04 88.5669 31.72C89.4735 31.3467 90.3002 30.8933 91.0469 30.36C91.7935 29.7733 92.3269 29.2933 92.6469 28.92C92.9669 28.4933 93.2602 28.0667 93.5269 27.64C93.7935 27.2133 93.9535 26.9733 94.0069 26.92V25.4C94.0069 24.8133 93.9535 24.3067 93.8469 23.88C93.7402 23.4 93.6335 23.08 93.5269 22.92L93.3669 22.68C91.7135 20.92 90.0335 19.96 88.3269 19.8H69.6069C67.7935 19.4267 66.2735 18.5733 65.0469 17.24ZM76.8869 8.27999C78.9135 8.27999 80.5935 8.92 81.9269 10.2C83.3135 11.4267 84.0069 12.92 84.0069 14.68V62.92C84.3802 64.6267 83.9535 66.12 82.7269 67.4C81.5535 68.68 80.0869 69.32 78.3269 69.32C76.1935 69.32 74.4335 68.7067 73.0469 67.48C71.7135 66.2533 71.0469 64.7333 71.0469 62.92L70.3269 15.4C70.3269 13.64 70.9669 12.0133 72.2469 10.52C73.5802 9.02666 75.1269 8.27999 76.8869 8.27999ZM86.8869 32.68C88.7535 31.6667 90.4869 31.4 92.0869 31.88C93.6869 32.36 95.0469 33.3733 96.1669 34.92L110.967 62.52C111.98 63.96 112.247 65.56 111.767 67.32C111.287 69.08 110.3 70.3333 108.807 71.08C106.994 72.0933 105.26 72.36 103.607 71.88C102.007 71.4 100.62 70.3867 99.4469 68.84L84.0069 41.24C83.2602 39.8 83.1802 38.2 83.7669 36.44C84.4069 34.68 85.4469 33.4267 86.8869 32.68ZM113.718 13.8C113.611 11.9867 114.171 10.44 115.398 9.16C116.678 7.88 118.385 7.18666 120.518 7.08L136.038 6.2C142.118 5.88 147.691 8.14666 152.758 13C154.518 14.7067 155.771 17.2667 156.518 20.68C157.318 24.0933 157.131 27.3733 155.958 30.52C154.785 33.6667 152.625 35.5067 149.478 36.04C151.718 36.68 153.665 38.12 155.318 40.36C157.025 42.5467 158.011 45.6133 158.278 49.56C158.385 51.64 158.198 53.6933 157.718 55.72C157.291 57.7467 156.545 59.7467 155.478 61.72C154.411 63.6933 152.811 65.3467 150.678 66.68C148.598 67.96 146.118 68.68 143.238 68.84L142.438 68.92L128.358 69.72C126.491 69.7733 124.838 69.1333 123.398 67.8C121.745 66.4667 120.891 64.8667 120.838 63C120.785 60.3867 120.731 57.2667 120.678 53.64C120.678 49.96 120.651 43.6667 120.598 34.76C120.545 25.8 120.571 21.0267 120.678 20.44C118.811 20.5467 117.211 20.04 115.878 18.92C114.598 17.8 113.905 16.36 113.798 14.6L113.718 13.8ZM133.878 19.72C134.091 22.28 134.278 25.5867 134.438 29.64C136.305 29.64 137.878 29.4533 139.158 29.08C140.491 28.7067 141.451 28.2533 142.038 27.72C142.625 27.1333 143.025 26.5467 143.238 25.96C143.505 25.32 143.611 24.7867 143.558 24.36C143.558 23.9333 143.505 23.6133 143.398 23.4C142.918 22.5467 142.385 21.8533 141.798 21.32C141.211 20.7333 140.545 20.3333 139.798 20.12C139.051 19.9067 138.438 19.7733 137.958 19.72C137.531 19.6667 136.918 19.6133 136.118 19.56C135.158 19.6133 134.411 19.6667 133.878 19.72ZM135.238 43.72L134.678 43.8C134.358 47.7467 134.331 51.7733 134.598 55.88L138.838 55.64C139.691 55.48 140.438 55.2933 141.078 55.08C141.771 54.8133 142.331 54.5733 142.758 54.36C143.185 54.0933 143.531 53.7733 143.798 53.4C144.118 53.0267 144.358 52.7067 144.518 52.44C144.678 52.1733 144.785 51.8533 144.838 51.48C144.891 51.1067 144.918 50.84 144.918 50.68C144.971 50.4667 144.998 50.2267 144.998 49.96L144.918 49.48C144.865 48.2 144.438 47.1333 143.638 46.28C142.891 45.4267 141.931 44.84 140.758 44.52C139.585 44.1467 138.571 43.9067 137.718 43.8C136.865 43.6933 136.038 43.6667 135.238 43.72ZM165.966 7.32C167.726 6.57333 169.486 6.65333 171.246 7.56C173.06 8.46666 174.153 9.85333 174.526 11.72C176.446 16.4667 178.313 20.9467 180.126 25.16L186.606 11.72C187.246 9.90666 188.5 8.65333 190.366 7.96C192.286 7.21333 194.126 7.21333 195.886 7.96C197.753 9.13333 198.953 10.5467 199.486 12.2C200.073 13.8533 199.86 15.5867 198.846 17.4L185.166 45.96C184.793 47.08 183.966 48.04 182.686 48.84C181.406 49.64 180.073 49.88 178.686 49.56C177.3 49.56 176.1 49.1867 175.086 48.44C174.073 47.64 173.406 46.5467 173.086 45.16L161.646 15.88C161.22 14.0667 161.38 12.36 162.126 10.76C162.926 9.16 164.206 8.01333 165.966 7.32ZM172.206 42.36C172.206 40.4933 172.9 38.84 174.286 37.4C175.673 35.96 177.406 35.24 179.486 35.24C181.3 35.56 182.82 36.3867 184.046 37.72C185.273 39.0533 185.886 40.6 185.886 42.36V63C185.886 64.8667 185.22 66.4133 183.886 67.64C182.553 68.8667 180.82 69.48 178.686 69.48C176.926 69.48 175.406 68.8667 174.126 67.64C172.846 66.36 172.206 64.8133 172.206 63V42.36Z" fill="url(#paint0_linear)"/>
<path d="M5.56 62.28L10.5453 62.6635L10.56 62.472V62.28H5.56ZM8.36 6.52L5.97454 2.12573L5.97454 2.12573L8.36 6.52ZM12.92 5.08L13.7648 0.151886L13.458 0.0992899L13.147 0.0851552L12.92 5.08ZM17.32 7.4L13.547 10.6809L13.5867 10.7266L13.6276 10.7713L17.32 7.4ZM18.92 12.52L13.9215 12.3981L13.9208 12.4268L13.9204 12.4555L18.92 12.52ZM18.76 24.92L13.7604 24.8555L23.1819 27.2538L18.76 24.92ZM26.36 10.52L30.7819 12.8538L30.9075 12.6159L31.0068 12.366L26.36 10.52ZM34.6 6.52L36.7524 2.00698L36.4276 1.8521L36.084 1.74531L34.6 6.52ZM39.32 13.08L34.3542 12.4958L34.32 12.7869V13.08H39.32ZM37.8 17.72L42.2288 20.0408L42.3061 19.8932L42.3734 19.7408L37.8 17.72ZM28.2 36.04L23.7712 33.7192L22.5126 36.1212L23.8393 38.4863L28.2 36.04ZM41.08 59L36.7193 61.4463L36.8411 61.6634L36.9838 61.8673L41.08 59ZM41.96 60.6L37.3176 62.4569L37.3176 62.457L41.96 60.6ZM42.36 62.04L37.3986 62.6602L37.4361 62.9598L37.5093 63.2527L42.36 62.04ZM42.44 63.96L37.508 63.138L37.44 63.5462V63.96H42.44ZM41.8 66.2L37.3882 63.8471L37.3573 63.9051L37.3279 63.9639L41.8 66.2ZM39.32 68.6L41.97 72.84L42.0323 72.801L42.0935 72.7603L39.32 68.6ZM34.6 69.64L34.8852 64.6481L34.387 64.6197L33.8929 64.6903L34.6 69.64ZM33.32 69.48L34.9011 64.7366L34.6564 64.655L34.4047 64.5991L33.32 69.48ZM31.48 68.52L28.2503 72.3369L28.4069 72.4694L28.5738 72.5887L31.48 68.52ZM29.72 66.2L34.1921 63.9639L34.1487 63.877L34.1018 63.7918L29.72 66.2ZM19.08 46.84L23.4618 44.4318L22.5994 42.8626L20.937 42.1976L19.08 46.84ZM18.68 46.68L20.537 42.0376L13.585 39.2568L13.6804 46.7437L18.68 46.68ZM18.84 59.24L13.8404 59.3037L13.8435 59.5487L13.8706 59.7922L18.84 59.24ZM18.6 64.6L23.0991 66.7814L23.2112 66.5502L23.299 66.3087L18.6 64.6ZM15.48 68.12L17.549 72.6718L17.5933 72.6517L17.6373 72.6307L15.48 68.12ZM10.44 68.84L9.67971 73.7819L9.99708 73.8307L10.3181 73.8385L10.44 68.84ZM6.84 66.44L2.72904 69.286L2.76538 69.3385L2.80304 69.3901L6.84 66.44ZM10.56 62.28V10.92H0.56V62.28H10.56ZM10.56 10.92C10.56 10.8475 10.5684 10.8459 10.5553 10.8934C10.5491 10.916 10.5394 10.9446 10.5252 10.9766C10.511 11.0086 10.4948 11.0384 10.4783 11.0644C10.4432 11.1195 10.4228 11.1322 10.4502 11.1079C10.4807 11.0809 10.5682 11.0105 10.7455 10.9143L5.97454 2.12573C4.45915 2.94837 3.05497 4.10333 2.04169 5.69562C1.01197 7.31375 0.56 9.1119 0.56 10.92H10.56ZM10.7455 10.9143C11.4844 10.5131 12.0314 10.2861 12.4057 10.1679C12.7926 10.0457 12.8607 10.0825 12.693 10.0748L13.147 0.0851552C10.5919 -0.0309876 8.08586 0.979587 5.97454 2.12573L10.7455 10.9143ZM12.0752 10.0081C13.0019 10.167 13.3586 10.4643 13.547 10.6809L21.093 4.1191C19.1481 1.88238 16.5715 0.633022 13.7648 0.151886L12.0752 10.0081ZM13.6276 10.7713C13.6303 10.7743 13.9536 11.0796 13.9215 12.3981L23.9185 12.6419C23.993 9.58711 23.2497 6.47903 21.0124 4.02865L13.6276 10.7713ZM13.9204 12.4555L13.7604 24.8555L23.7596 24.9845L23.9196 12.5845L13.9204 12.4555ZM23.1819 27.2538L30.7819 12.8538L21.9381 8.18621L14.3381 22.5862L23.1819 27.2538ZM31.0068 12.366C31.4921 11.1442 31.8741 11.0443 31.7635 11.098C31.64 11.158 31.9193 10.9227 33.116 11.2947L36.084 1.74531C33.334 0.890584 30.2667 0.70868 27.3965 2.10197C24.5392 3.489 22.7745 6.00247 21.7132 8.67403L31.0068 12.366ZM32.4476 11.033C33.7255 11.6425 34.1909 12.1389 34.3214 12.3202C34.3735 12.3927 34.3681 12.407 34.3605 12.3774C34.3533 12.3493 34.3684 12.3753 34.3542 12.4958L44.2858 13.6642C44.589 11.0866 43.9681 8.6055 42.4386 6.47977C40.9957 4.47444 38.9412 3.05087 36.7524 2.00698L32.4476 11.033ZM34.32 13.08C34.32 12.7964 34.3593 12.6642 34.3376 12.7648C34.3211 12.8414 34.2787 13.0078 34.1885 13.2835C34.0064 13.8391 33.6978 14.6327 33.2266 15.6992L42.3734 19.7408C42.9155 18.514 43.3669 17.3875 43.6915 16.3965C43.9758 15.5287 44.32 14.313 44.32 13.08H34.32ZM33.3712 15.3992L23.7712 33.7192L32.6288 38.3608L42.2288 20.0408L33.3712 15.3992ZM23.8393 38.4863L36.7193 61.4463L45.4407 56.5537L32.5607 33.5937L23.8393 38.4863ZM36.9838 61.8673C37.1656 62.1269 37.2644 62.3239 37.3176 62.4569L46.6024 58.7431C46.2289 57.8094 45.7411 56.9397 45.1762 56.1327L36.9838 61.8673ZM37.3176 62.457C37.3665 62.5791 37.3913 62.6584 37.4024 62.6982C37.4137 62.7387 37.4066 62.7238 37.3986 62.6602L47.3214 61.4198C47.2007 60.4543 46.9249 59.5494 46.6024 58.743L37.3176 62.457ZM37.5093 63.2527C37.5342 63.3523 37.5399 63.3915 37.5381 63.3803C37.537 63.373 37.5328 63.3447 37.5288 63.2981C37.5248 63.2522 37.52 63.1779 37.52 63.08H47.52C47.52 62.2268 47.3614 61.43 47.2107 60.8273L37.5093 63.2527ZM37.52 63.08C37.52 63.0475 37.5216 63.0358 37.5205 63.0473C37.5195 63.0587 37.5163 63.0884 37.508 63.138L47.372 64.782C47.4613 64.2463 47.52 63.6735 47.52 63.08H37.52ZM37.44 63.96V64.44H47.44V63.96H37.44ZM37.44 64.44C37.44 64.0747 37.4899 63.8064 37.5191 63.6753C37.55 63.5361 37.579 63.457 37.581 63.4513C37.5844 63.4419 37.5741 63.4712 37.5402 63.5447C37.507 63.6167 37.4578 63.7166 37.3882 63.8471L46.2118 68.5529C46.4911 68.0292 46.7648 67.4577 46.979 66.8687C47.1695 66.3447 47.44 65.4714 47.44 64.44H37.44ZM37.3279 63.9639C37.4694 63.6809 37.5726 63.6221 37.4229 63.767C37.2849 63.9005 37.0135 64.1284 36.5465 64.4397L42.0935 72.7603C43.5804 71.769 45.3034 70.3736 46.2721 68.4361L37.3279 63.9639ZM36.67 64.36C36.4574 64.4929 35.9685 64.71 34.8852 64.6481L34.3148 74.6319C36.9648 74.7833 39.6226 74.3071 41.97 72.84L36.67 64.36ZM33.8929 64.6903C34.5044 64.6029 34.8847 64.7311 34.9011 64.7366L31.7389 74.2234C32.7153 74.5489 33.949 74.7838 35.3071 74.5897L33.8929 64.6903ZM34.4047 64.5991C34.5766 64.6373 34.6952 64.6797 34.7527 64.7021C34.8117 64.7251 34.8329 64.7375 34.8128 64.7271C34.7938 64.7171 34.7476 64.6918 34.6725 64.6447C34.5979 64.5979 34.5028 64.5347 34.3862 64.4513L28.5738 72.5887C29.4758 73.2329 30.7536 74.0317 32.2353 74.3609L34.4047 64.5991ZM34.7097 64.7031C34.6184 64.6258 34.4235 64.4267 34.1921 63.9639L25.2479 68.4361C25.9765 69.8933 26.9549 71.2408 28.2503 72.3369L34.7097 64.7031ZM34.1018 63.7918L23.4618 44.4318L14.6982 49.2482L25.3382 68.6082L34.1018 63.7918ZM20.937 42.1976L20.537 42.0376L16.823 51.3224L17.223 51.4824L20.937 42.1976ZM13.6804 46.7437L13.8404 59.3037L23.8396 59.1763L23.6796 46.6163L13.6804 46.7437ZM13.8706 59.7922C13.9845 60.8174 14.0102 61.5936 13.985 62.1563C13.9588 62.7423 13.8837 62.939 13.901 62.8913L23.299 66.3087C24.1346 64.0108 24.096 61.2667 23.8094 58.6878L13.8706 59.7922ZM14.1009 62.4186C13.5309 63.5943 13.1633 63.6856 13.3227 63.6093L17.6373 72.6307C20.2501 71.3811 21.9624 69.1257 23.0991 66.7814L14.1009 62.4186ZM13.411 63.5682C13.2459 63.6432 12.4509 63.8876 10.5619 63.8415L10.3181 73.8385C12.8024 73.8991 15.3675 73.6634 17.549 72.6718L13.411 63.5682ZM11.2003 63.8981C11.2139 63.9002 11.2358 63.9055 11.2588 63.9145C11.2814 63.9233 11.287 63.9287 11.2735 63.9197C11.2459 63.9013 11.1014 63.797 10.877 63.4899L2.80304 69.3901C4.41347 71.5938 6.69628 73.3229 9.67971 73.7819L11.2003 63.8981ZM10.951 63.5939C10.5007 62.9435 10.5443 62.6762 10.5453 62.6635L0.574728 61.8965C0.36237 64.6572 1.25932 67.1631 2.72904 69.286L10.951 63.5939ZM47.7869 8.2L51.1839 11.8688L51.1891 11.864L47.7869 8.2ZM57.7869 8.2L54.3187 11.8016L54.3865 11.8669L54.4568 11.9297L57.7869 8.2ZM57.7869 67.56L61.1839 71.2288L61.1891 71.224L57.7869 67.56ZM48.1069 67.56L44.4272 70.9453L44.4632 70.9844L44.4999 71.0227L48.1069 67.56ZM46.2669 62.36H51.2669V62.3274L51.2664 62.2948L46.2669 62.36ZM45.6269 13.32H40.6269V13.3526L40.6273 13.3852L45.6269 13.32ZM51.1891 11.864C51.85 11.2503 52.3429 11.12 52.8269 11.12V1.12C49.5776 1.12 46.7104 2.37633 44.3846 4.53603L51.1891 11.864ZM52.8269 11.12C53.3025 11.12 53.7376 11.2421 54.3187 11.8016L61.2551 4.59839C58.9561 2.3846 56.0846 1.12 52.8269 1.12V11.12ZM54.4568 11.9297C54.8415 12.2731 55.0269 12.6012 55.0269 13.32H65.0269C65.0269 9.87879 63.7189 6.79352 61.117 4.47031L54.4568 11.9297ZM55.0269 13.32V62.36H65.0269V13.32H55.0269ZM55.0269 62.36C55.0269 63.0823 54.8355 63.4774 54.3846 63.896L61.1891 71.224C63.725 68.8693 65.0269 65.7977 65.0269 62.36H55.0269ZM54.3898 63.8912C53.8219 64.417 53.3646 64.56 52.8269 64.56V74.56C56.0225 74.56 58.8718 73.3696 61.1839 71.2288L54.3898 63.8912ZM52.8269 64.56C52.3064 64.56 52.0404 64.4375 51.7138 64.0973L44.4999 71.0227C46.7334 73.3491 49.6141 74.56 52.8269 74.56V64.56ZM51.7865 64.1747C51.5566 63.9248 51.2669 63.4759 51.2669 62.36H41.2669C41.2669 65.5108 42.2038 68.5285 44.4272 70.9453L51.7865 64.1747ZM51.2664 62.2948L50.6264 13.2547L40.6273 13.3852L41.2673 62.4252L51.2664 62.2948ZM50.6269 13.32C50.6269 12.5391 50.8327 12.194 51.1839 11.8688L44.3898 4.53119C41.861 6.87268 40.6269 9.94091 40.6269 13.32H50.6269ZM65.0469 17.24L61.3019 20.5529L61.3342 20.5894L61.3672 20.6253L65.0469 17.24ZM65.0469 8.04L61.5113 4.50446L61.5113 4.50446L65.0469 8.04ZM69.6069 6.12L69.7919 1.12342L69.6994 1.12H69.6069V6.12ZM89.0469 6.84L88.8618 11.8366L88.9543 11.84H89.0469V6.84ZM92.3269 7.24L91.3463 12.1429L91.4413 12.1619L91.5369 12.1772L92.3269 7.24ZM97.6869 9.32L95.3668 13.7492L95.3881 13.7603L95.4095 13.7712L97.6869 9.32ZM103.447 13.96L107.497 11.0287L107.422 10.924L107.341 10.8234L103.447 13.96ZM106.967 28.36L111.87 29.3406L111.915 29.1148L111.939 28.8859L106.967 28.36ZM105.447 33.16L110.009 35.2053L110.022 35.1767L110.035 35.148L105.447 33.16ZM102.247 38.04L98.4254 34.8156L98.3955 34.8511L98.3663 34.887L102.247 38.04ZM97.2069 42.44L94.5672 38.1936L94.541 38.2099L94.5149 38.2265L97.2069 42.44ZM89.7669 45.48L90.9595 50.3357L90.9995 50.3259L91.0393 50.3154L89.7669 45.48ZM79.6869 46.36L78.6786 51.2573L79.0702 51.3379L79.4697 51.3553L79.6869 46.36ZM75.0469 43.8L71.3672 47.1853L71.4032 47.2244L71.4399 47.2627L75.0469 43.8ZM75.4469 34.6L78.7008 38.3963L78.7008 38.3963L75.4469 34.6ZM80.4069 32.68L80.7188 27.6897L80.563 27.68H80.4069V32.68ZM85.1269 32.52L84.3941 27.574L84.3941 27.574L85.1269 32.52ZM88.5669 31.72L90.3225 36.4016L90.397 36.3737L90.4706 36.3434L88.5669 31.72ZM91.0469 30.36L93.9531 34.4287L94.0461 34.3622L94.136 34.2916L91.0469 30.36ZM92.6469 28.92L96.4432 32.1739L96.5492 32.0503L96.6469 31.92L92.6469 28.92ZM94.0069 26.92L97.5424 30.4556L99.0069 28.9911V26.92H94.0069ZM93.8469 23.88L88.9659 24.9647L88.9802 25.0289L88.9962 25.0927L93.8469 23.88ZM93.5269 22.92L89.3666 25.6935L93.5269 22.92ZM93.3669 22.68L97.5271 19.9065L97.2962 19.5601L97.0111 19.2566L93.3669 22.68ZM88.3269 19.8L88.7936 14.8218L88.5607 14.8H88.3269V19.8ZM69.6069 19.8L68.5986 24.6973L69.0975 24.8H69.6069V19.8ZM81.9269 10.2L78.4642 13.8069L78.5377 13.8775L78.614 13.945L81.9269 10.2ZM84.0069 62.92H79.0069V63.4605L79.1224 63.9885L84.0069 62.92ZM82.7269 67.4L79.1169 63.9405L79.0786 63.9805L79.0411 64.0214L82.7269 67.4ZM73.0469 67.48L69.6616 71.1597L69.6975 71.1927L69.734 71.225L73.0469 67.48ZM71.0469 62.92H76.0469V62.8821L76.0463 62.8443L71.0469 62.92ZM70.3269 15.4H65.3269V15.4379L65.3274 15.4757L70.3269 15.4ZM72.2469 10.52L68.5172 7.18992L68.4835 7.22765L68.4506 7.26604L72.2469 10.52ZM86.8869 32.68L89.1885 37.1188L89.2306 37.0969L89.2723 37.0743L86.8869 32.68ZM96.1669 34.92L100.573 32.5571L100.414 32.2603L100.217 31.9874L96.1669 34.92ZM110.967 62.52L106.56 64.8829L106.704 65.1498L106.878 65.3975L110.967 62.52ZM111.767 67.32L106.943 66.0044L111.767 67.32ZM108.807 71.08L106.571 66.6079L106.468 66.6592L106.368 66.7153L108.807 71.08ZM103.607 71.88L102.17 76.6691L102.191 76.6755L102.213 76.6817L103.607 71.88ZM99.4469 68.84L95.0833 71.2811L95.2531 71.5847L95.4634 71.8619L99.4469 68.84ZM84.0069 41.24L79.5681 43.5416L79.6046 43.6119L79.6433 43.6811L84.0069 41.24ZM83.7669 36.44L79.0679 34.7313L79.0448 34.7948L79.0235 34.8589L83.7669 36.44ZM68.7919 13.9271C68.328 13.4028 68.2069 12.9921 68.2069 12.52H58.2069C58.2069 15.5679 59.3124 18.3039 61.3019 20.5529L68.7919 13.9271ZM68.2069 12.52C68.2069 12.0644 68.3086 11.8493 68.5824 11.5755L61.5113 4.50446C59.3318 6.68402 58.2069 9.45557 58.2069 12.52H68.2069ZM68.5824 11.5755C68.9546 11.2033 69.2147 11.12 69.6069 11.12V1.12C66.4791 1.12 63.6991 2.3167 61.5113 4.50446L68.5824 11.5755ZM69.4218 11.1166L88.8618 11.8366L89.2319 1.84343L69.7919 1.12342L69.4218 11.1166ZM89.0469 11.84C89.4366 11.84 90.17 11.9076 91.3463 12.1429L93.3075 2.3371C91.8171 2.03902 90.3639 1.84 89.0469 1.84V11.84ZM91.5369 12.1772C92.0557 12.2602 93.2644 12.6479 95.3668 13.7492L100.007 4.89084C97.6293 3.64545 95.2647 2.64646 93.1168 2.3028L91.5369 12.1772ZM95.4095 13.7712C97.1064 14.6394 98.4667 15.748 99.5531 17.0966L107.341 10.8234C105.334 8.33198 102.854 6.34726 99.9643 4.86876L95.4095 13.7712ZM99.3963 16.8913C101.522 19.8284 102.468 23.3625 101.995 27.8341L111.939 28.8859C112.64 22.2642 111.239 16.1982 107.497 11.0287L99.3963 16.8913ZM102.064 27.3794C101.818 28.6106 101.422 29.8737 100.859 31.172L110.035 35.148C110.859 33.2463 111.476 31.3094 111.87 29.3406L102.064 27.3794ZM100.884 31.1147C100.431 32.1255 99.6539 33.3596 98.4254 34.8156L106.068 41.2644C107.72 39.307 109.076 37.2878 110.009 35.2053L100.884 31.1147ZM98.3663 34.887C97.3491 36.139 96.0959 37.2433 94.5672 38.1936L99.8465 46.6864C102.264 45.1834 104.371 43.3544 106.127 41.193L98.3663 34.887ZM94.5149 38.2265C93.1638 39.0897 91.2081 39.9305 88.4944 40.6446L91.0393 50.3154C94.4056 49.4295 97.4099 48.2436 99.8988 46.6535L94.5149 38.2265ZM88.5743 40.6243C86.0681 41.2399 83.1912 41.5076 79.9041 41.3647L79.4697 51.3553C83.5425 51.5324 87.3857 51.2135 90.9595 50.3357L88.5743 40.6243ZM80.6951 41.4627C79.8715 41.2931 79.2315 40.9391 78.6538 40.3373L71.4399 47.2627C73.4222 49.3275 75.8756 50.6802 78.6786 51.2573L80.6951 41.4627ZM78.7265 40.4147C78.3498 40.0052 78.2069 39.6405 78.2069 39.08H68.2069C68.2069 42.1462 69.2907 44.9281 71.3672 47.1853L78.7265 40.4147ZM78.2069 39.08C78.2069 38.985 78.2207 38.9527 78.239 38.9161C78.2662 38.8618 78.3714 38.6786 78.7008 38.3963L72.1929 30.8037C69.7792 32.8726 68.2069 35.6833 68.2069 39.08H78.2069ZM78.7008 38.3963C79.3707 37.8221 79.8917 37.68 80.4069 37.68V27.68C77.2954 27.68 74.5098 28.8179 72.1929 30.8037L78.7008 38.3963ZM80.095 37.6703C82.0917 37.7951 84.0202 37.7385 85.8596 37.466L84.3941 27.574C83.3536 27.7281 82.1354 27.7783 80.7188 27.6897L80.095 37.6703ZM85.8596 37.466C87.4683 37.2277 89.0028 36.8965 90.3225 36.4016L86.8113 27.0384C86.4243 27.1835 85.6654 27.3856 84.3941 27.574L85.8596 37.466ZM90.4706 36.3434C91.7075 35.8341 92.8741 35.1994 93.9531 34.4287L88.1407 26.2913C87.7263 26.5873 87.2396 26.8592 86.6631 27.0966L90.4706 36.3434ZM94.136 34.2916C94.9492 33.6526 95.7956 32.9295 96.4432 32.1739L88.8506 25.6661C88.8786 25.6334 88.8341 25.6887 88.662 25.8435C88.4997 25.9897 88.2696 26.1834 87.9578 26.4284L94.136 34.2916ZM96.6469 31.92C97.0468 31.3868 97.4209 30.8436 97.7669 30.29L89.2869 24.99C89.0995 25.2898 88.887 25.5998 88.6469 25.92L96.6469 31.92ZM97.7669 30.29C97.8265 30.1946 97.8767 30.1152 97.9182 30.0503C97.9605 29.9843 97.9894 29.9401 98.0071 29.9135C98.0286 29.8813 98.02 29.8953 97.9905 29.9359C97.9757 29.9563 97.9391 30.0061 97.8862 30.0723C97.8589 30.1064 97.819 30.1551 97.7686 30.2131C97.7208 30.2681 97.6436 30.3543 97.5424 30.4556L90.4714 23.3844C90.152 23.7038 89.93 24.0173 89.9032 24.0541C89.8204 24.168 89.7452 24.2787 89.6866 24.3665C89.5667 24.5464 89.4302 24.7607 89.2869 24.99L97.7669 30.29ZM99.0069 26.92V25.4H89.0069V26.92H99.0069ZM99.0069 25.4C99.0069 24.5313 98.93 23.5971 98.6976 22.6673L88.9962 25.0927C88.9848 25.0472 88.9884 25.0469 88.9943 25.1034C89.0002 25.1592 89.0069 25.256 89.0069 25.4H99.0069ZM98.7278 22.7953C98.6333 22.3702 98.3758 21.1795 97.6871 20.1465L89.3666 25.6935C89.1912 25.4303 89.0876 25.2128 89.0378 25.1007C88.9839 24.9794 88.9542 24.8933 88.9435 24.8611C88.9241 24.8029 88.9347 24.824 88.9659 24.9647L98.7278 22.7953ZM97.6871 20.1465L97.5271 19.9065L89.2066 25.4535L89.3666 25.6935L97.6871 20.1465ZM97.0111 19.2566C94.8625 16.9694 92.1295 15.1346 88.7936 14.8218L87.8602 24.7782C87.9376 24.7854 88.5646 24.8706 89.7226 26.1034L97.0111 19.2566ZM88.3269 14.8H69.6069V24.8H88.3269V14.8ZM70.6151 14.9027C69.8047 14.7359 69.2268 14.3985 68.7265 13.8547L61.3672 20.6253C63.3202 22.7481 65.7824 24.1175 68.5986 24.6973L70.6151 14.9027ZM76.8869 13.28C77.7589 13.28 78.1558 13.5109 78.4642 13.8069L85.3895 6.59307C83.0313 4.32914 80.0682 3.27999 76.8869 3.27999V13.28ZM78.614 13.945C78.8556 14.1587 78.9293 14.2971 78.9518 14.3456C78.9714 14.3877 79.0069 14.4762 79.0069 14.68H89.0069C89.0069 11.4054 87.636 8.57481 85.2397 6.45502L78.614 13.945ZM79.0069 14.68V62.92H89.0069V14.68H79.0069ZM79.1224 63.9885C79.1405 64.0712 79.1372 64.0973 79.1376 64.0767C79.1377 64.067 79.1387 64.0492 79.1422 64.025C79.1458 64.0007 79.1514 63.974 79.1593 63.9464C79.1671 63.9188 79.1761 63.8946 79.1847 63.8748C79.1933 63.8551 79.2 63.8433 79.2021 63.8397C79.2069 63.8317 79.1874 63.867 79.1169 63.9405L86.3368 70.8595C88.6956 68.3982 89.627 65.2144 88.8914 61.8515L79.1224 63.9885ZM79.0411 64.0214C78.8856 64.191 78.7877 64.2396 78.7472 64.2573C78.705 64.2757 78.5879 64.32 78.3269 64.32V74.32C81.4667 74.32 84.2777 73.1077 86.4126 70.7786L79.0411 64.0214ZM78.3269 64.32C77.2162 64.32 76.6943 64.0309 76.3597 63.735L69.734 71.225C72.1728 73.3824 75.1709 74.32 78.3269 74.32V64.32ZM76.4322 63.8003C76.129 63.5214 76.0469 63.3363 76.0469 62.92H66.0469C66.0469 66.1303 67.2981 68.9853 69.6616 71.1597L76.4322 63.8003ZM76.0463 62.8443L75.3263 15.3242L65.3274 15.4757L66.0474 62.9957L76.0463 62.8443ZM75.3269 15.4C75.3269 14.9754 75.4423 14.4749 76.0432 13.774L68.4506 7.26604C66.4914 9.55174 65.3269 12.3046 65.3269 15.4H75.3269ZM75.9766 13.8501C76.5058 13.2573 76.7547 13.28 76.8869 13.28V3.27999C73.499 3.27999 70.6546 4.796 68.5172 7.18992L75.9766 13.8501ZM89.2723 37.0743C90.3025 36.515 90.6491 36.6688 90.6501 36.6691L93.5236 27.0909C90.3247 26.1312 87.2045 26.8183 84.5014 28.2857L89.2723 37.0743ZM90.6501 36.6691C91.0517 36.7896 91.5444 37.0616 92.1172 37.8526L100.217 31.9874C98.5493 29.6851 96.322 27.9304 93.5236 27.0909L90.6501 36.6691ZM91.7604 37.2829L106.56 64.8829L115.373 60.1571L100.573 32.5571L91.7604 37.2829ZM106.878 65.3975C106.939 65.4842 106.967 65.5418 106.979 65.5703C106.99 65.5974 106.993 65.6125 106.995 65.622C106.996 65.626 107.017 65.7337 106.943 66.0044L116.591 68.6356C117.446 65.498 116.962 62.3507 115.056 59.6425L106.878 65.3975ZM106.943 66.0044C106.854 66.3303 106.762 66.4573 106.738 66.4872C106.722 66.5079 106.69 66.5482 106.571 66.6079L111.043 75.5521C113.935 74.1061 115.775 71.6255 116.591 68.6356L106.943 66.0044ZM106.368 66.7153C105.464 67.2204 105.111 67.1102 105.001 67.0783L102.213 76.6817C105.41 77.6098 108.523 76.9663 111.246 75.4447L106.368 66.7153ZM105.044 67.0909C104.616 66.9627 104.071 66.6625 103.43 65.8181L95.4634 71.8619C97.1695 74.1109 99.3974 75.8373 102.17 76.6691L105.044 67.0909ZM103.81 66.3989L88.3705 38.7989L79.6433 43.6811L95.0833 71.2811L103.81 66.3989ZM88.4456 38.9384C88.4124 38.8743 88.284 38.7 88.5103 38.0211L79.0235 34.8589C78.0764 37.7 78.108 40.7257 79.5681 43.5416L88.4456 38.9384ZM88.4658 38.1487C88.7481 37.3724 89.0329 37.1994 89.1885 37.1188L84.5853 28.2412C81.8608 29.6539 80.0656 31.9876 79.0679 34.7313L88.4658 38.1487ZM113.718 13.8L108.727 14.0936L108.733 14.1957L108.743 14.2975L113.718 13.8ZM115.398 9.16L111.863 5.62446L111.825 5.66207L111.788 5.70047L115.398 9.16ZM120.518 7.08L120.768 12.0738L120.784 12.0729L120.801 12.072L120.518 7.08ZM136.038 6.2L135.775 1.20691L135.765 1.20744L135.755 1.20802L136.038 6.2ZM152.758 13L156.239 9.41049L156.228 9.39985L156.217 9.38926L152.758 13ZM156.518 20.68L151.634 21.7485L151.642 21.7848L151.65 21.821L156.518 20.68ZM155.958 30.52L151.273 28.7731L151.273 28.7731L155.958 30.52ZM149.478 36.04L148.643 31.1103L148.105 40.8476L149.478 36.04ZM155.318 40.36L151.295 43.3293L151.335 43.3834L151.377 43.4364L155.318 40.36ZM158.278 49.56L163.272 49.3039L163.269 49.2634L163.267 49.2229L158.278 49.56ZM157.718 55.72L152.853 54.5677L152.838 54.6286L152.825 54.6899L157.718 55.72ZM155.478 61.72L151.08 59.3424L151.08 59.3424L155.478 61.72ZM150.678 66.68L153.299 70.9383L153.313 70.9292L153.328 70.92L150.678 66.68ZM143.238 68.84L142.961 63.8477L142.851 63.8538L142.741 63.8648L143.238 68.84ZM142.438 68.92L142.722 73.9119L142.829 73.9059L142.936 73.8952L142.438 68.92ZM128.358 69.72L128.501 74.718L128.571 74.7159L128.642 74.7119L128.358 69.72ZM123.398 67.8L126.795 64.1312L126.67 64.0152L126.537 63.9079L123.398 67.8ZM120.838 63L115.839 63.102L115.84 63.1224L115.84 63.1428L120.838 63ZM120.678 53.64H115.678V53.6768L115.679 53.7135L120.678 53.64ZM120.598 34.76L115.598 34.7898L115.598 34.7899L120.598 34.76ZM120.678 20.44L125.597 21.3344L126.734 15.0858L120.393 15.4481L120.678 20.44ZM115.878 18.92L112.586 22.6829L112.624 22.7161L112.662 22.7485L115.878 18.92ZM113.798 14.6L118.789 14.2975L118.783 14.1999L118.773 14.1025L113.798 14.6ZM133.878 19.72L133.381 14.7448L128.487 15.2342L128.895 20.1352L133.878 19.72ZM134.438 29.64L129.442 29.8372L129.632 34.64H134.438V29.64ZM139.158 29.08L137.81 24.2652L137.784 24.2724L137.758 24.28L139.158 29.08ZM142.038 27.72L145.401 31.4197L145.49 31.3397L145.574 31.2555L142.038 27.72ZM143.238 25.96L138.623 24.0369L138.578 24.1431L138.539 24.2513L143.238 25.96ZM143.558 24.36H138.558V24.6713L138.597 24.9802L143.558 24.36ZM143.398 23.4L147.87 21.1639L147.816 21.0549L147.756 20.9487L143.398 23.4ZM141.798 21.32L138.263 24.8555L138.347 24.9397L138.435 25.0197L141.798 21.32ZM139.798 20.12L138.425 24.9276L138.425 24.9276L139.798 20.12ZM137.958 19.72L137.338 24.6814L137.372 24.6856L137.406 24.6894L137.958 19.72ZM136.118 19.56L136.451 14.5711L136.146 14.5507L135.841 14.5677L136.118 19.56ZM135.238 43.72L134.906 38.7311L134.718 38.7436L134.531 38.7703L135.238 43.72ZM134.678 43.8L133.971 38.8502L130.017 39.4151L129.694 43.3959L134.678 43.8ZM134.598 55.88L129.609 56.204L129.93 61.1522L134.881 60.872L134.598 55.88ZM138.838 55.64L139.121 60.632L139.443 60.6138L139.76 60.5544L138.838 55.64ZM141.078 55.08L142.659 59.8234L142.767 59.7875L142.873 59.7467L141.078 55.08ZM142.758 54.36L144.994 58.8321L145.207 58.7259L145.408 58.6L142.758 54.36ZM143.798 53.4L140.002 50.146L139.858 50.3139L139.729 50.4938L143.798 53.4ZM144.518 52.44L148.806 55.0125L148.806 55.0125L144.518 52.44ZM144.838 51.48L139.888 50.7729L139.888 50.7729L144.838 51.48ZM144.918 50.68L140.067 49.4673L139.918 50.0645V50.68H144.918ZM144.998 49.96H149.998V49.5462L149.93 49.138L144.998 49.96ZM144.918 49.48L139.922 49.6882L139.935 49.997L139.986 50.302L144.918 49.48ZM143.638 46.28L139.875 49.5725L139.932 49.6371L139.99 49.6997L143.638 46.28ZM140.758 44.52L139.242 49.2846L139.342 49.3163L139.443 49.3438L140.758 44.52ZM137.718 43.8L138.338 38.8386L138.338 38.8386L137.718 43.8ZM118.709 13.5064C118.682 13.0431 118.77 12.8675 119.008 12.6195L111.788 5.70047C109.572 8.01252 108.541 10.9302 108.727 14.0936L118.709 13.5064ZM118.934 12.6955C119.183 12.4461 119.636 12.1303 120.768 12.0738L120.268 2.08623C117.133 2.243 114.173 3.31387 111.863 5.62446L118.934 12.6955ZM120.801 12.072L136.321 11.192L135.755 1.20802L120.235 2.08801L120.801 12.072ZM136.301 11.1931C140.789 10.9569 145.063 12.5528 149.299 16.6107L156.217 9.38926C150.32 3.74054 143.448 0.803107 135.775 1.20691L136.301 11.1931ZM149.277 16.5895C150.091 17.3787 151.012 18.9048 151.634 21.7485L161.403 19.6115C160.531 15.6285 158.945 12.0346 156.239 9.41049L149.277 16.5895ZM151.65 21.821C152.236 24.3192 152.087 26.5919 151.273 28.7731L160.643 32.2669C162.176 28.1548 162.401 23.8675 161.386 19.539L151.65 21.821ZM151.273 28.7731C150.683 30.3552 149.92 30.8938 148.643 31.1103L150.314 40.9697C155.329 40.1196 158.886 36.9781 160.643 32.2669L151.273 28.7731ZM148.105 40.8476C149.087 41.1283 150.166 41.7987 151.295 43.3293L159.341 37.3907C157.164 34.4413 154.349 32.2317 150.852 31.2324L148.105 40.8476ZM151.377 43.4364C152.258 44.5653 153.063 46.5405 153.29 49.8971L163.267 49.2229C162.96 44.6861 161.792 40.528 159.26 37.2836L151.377 43.4364ZM153.285 49.8161C153.367 51.4229 153.224 53.002 152.853 54.5677L162.584 56.8723C163.173 54.3846 163.402 51.8571 163.272 49.3039L153.285 49.8161ZM152.825 54.6899C152.506 56.2086 151.936 57.7572 151.08 59.3424L159.877 64.0976C161.153 61.7361 162.077 59.2847 162.611 56.7501L152.825 54.6899ZM151.08 59.3424C150.473 60.4649 149.518 61.5087 148.028 62.44L153.328 70.92C156.105 69.1846 158.35 66.9218 159.877 64.0976L151.08 59.3424ZM148.058 62.4217C146.804 63.1935 145.161 63.7255 142.961 63.8477L143.515 73.8323C147.075 73.6345 150.393 72.7265 153.299 70.9383L148.058 62.4217ZM142.741 63.8648L141.941 63.9448L142.936 73.8952L143.736 73.8152L142.741 63.8648ZM142.154 63.9281L128.074 64.7281L128.642 74.7119L142.722 73.9119L142.154 63.9281ZM128.215 64.722C127.729 64.7359 127.329 64.6254 126.795 64.1312L120.001 71.4688C122.347 73.6412 125.254 74.8107 128.501 74.718L128.215 64.722ZM126.537 63.9079C125.847 63.3516 125.842 63.0522 125.836 62.8572L115.84 63.1428C115.941 66.6812 117.643 69.5817 120.259 71.6921L126.537 63.9079ZM125.837 62.898C125.784 60.297 125.731 57.187 125.678 53.5665L115.679 53.7135C115.732 57.3464 115.786 60.4764 115.839 63.102L125.837 62.898ZM125.678 53.64C125.678 49.9435 125.651 43.6367 125.598 34.7301L115.598 34.7899C115.652 43.6966 115.678 49.9765 115.678 53.64H125.678ZM125.598 34.7302C125.571 30.256 125.565 26.8454 125.578 24.4879C125.585 23.3062 125.596 22.4117 125.612 21.7893C125.633 20.9431 125.657 21.0054 125.597 21.3344L115.759 19.5456C115.646 20.1679 115.627 21.0469 115.615 21.5407C115.597 22.2583 115.585 23.2272 115.578 24.4321C115.565 26.8479 115.572 30.304 115.598 34.7898L125.598 34.7302ZM120.393 15.4481C119.696 15.488 119.375 15.3276 119.094 15.0915L112.662 22.7485C115.048 24.7524 117.927 25.6054 120.963 25.4319L120.393 15.4481ZM119.171 15.1571C118.937 14.9527 118.818 14.7782 118.789 14.2975L108.807 14.9025C108.991 17.9418 110.259 20.6473 112.586 22.6829L119.171 15.1571ZM118.773 14.1025L118.693 13.3025L108.743 14.2975L108.823 15.0975L118.773 14.1025ZM128.895 20.1352C129.1 22.5937 129.283 25.8203 129.442 29.8372L139.434 29.4428C139.273 25.353 139.083 21.9663 138.861 19.3048L128.895 20.1352ZM134.438 34.64C136.605 34.64 138.682 34.4271 140.558 33.88L137.758 24.28C137.074 24.4795 136.005 24.64 134.438 24.64V34.64ZM140.506 33.8948C142.108 33.4463 143.958 32.7321 145.401 31.4197L138.675 24.0203C138.848 23.8627 138.917 23.8567 138.743 23.9388C138.58 24.016 138.283 24.1327 137.81 24.2652L140.506 33.8948ZM145.574 31.2555C146.515 30.3142 147.406 29.1289 147.937 27.6687L138.539 24.2513C138.593 24.1038 138.644 24.028 138.647 24.0233C138.649 24.0207 138.64 24.0339 138.616 24.062C138.593 24.0901 138.556 24.1312 138.503 24.1845L145.574 31.2555ZM147.854 27.8831C148.271 26.8818 148.728 25.4054 148.52 23.7398L138.597 24.9802C138.542 24.5405 138.59 24.2267 138.615 24.0994C138.641 23.9694 138.662 23.9424 138.623 24.0369L147.854 27.8831ZM148.558 24.36C148.558 23.678 148.499 22.4221 147.87 21.1639L138.926 25.6361C138.693 25.1692 138.614 24.7895 138.586 24.622C138.556 24.4411 138.558 24.3416 138.558 24.36H148.558ZM147.756 20.9487C147.073 19.7339 146.225 18.5869 145.161 17.6203L138.435 25.0197C138.545 25.1197 138.764 25.3594 139.04 25.8513L147.756 20.9487ZM145.334 17.7845C144.189 16.6394 142.791 15.7751 141.172 15.3124L138.425 24.9276C138.377 24.914 138.327 24.8923 138.286 24.8675C138.246 24.8435 138.239 24.832 138.263 24.8555L145.334 17.7845ZM141.172 15.3124C140.297 15.0624 139.383 14.8476 138.51 14.7506L137.406 24.6894C137.493 24.6991 137.806 24.7509 138.425 24.9276L141.172 15.3124ZM138.578 14.7586C138.007 14.6872 137.28 14.6264 136.451 14.5711L135.786 24.5489C136.556 24.6003 137.056 24.6461 137.338 24.6814L138.578 14.7586ZM135.841 14.5677C134.855 14.6225 134.023 14.6806 133.381 14.7448L134.376 24.6952C134.8 24.6527 135.461 24.6042 136.395 24.5523L135.841 14.5677ZM134.531 38.7703L133.971 38.8502L135.385 48.7497L135.945 48.6697L134.531 38.7703ZM129.694 43.3959C129.354 47.5941 129.327 51.8643 129.609 56.204L139.588 55.556C139.336 51.6824 139.362 47.8992 139.662 44.2041L129.694 43.3959ZM134.881 60.872L139.121 60.632L138.556 50.648L134.316 50.888L134.881 60.872ZM139.76 60.5544C140.777 60.3637 141.753 60.1256 142.659 59.8234L139.497 50.3366C139.124 50.461 138.606 50.5963 137.917 50.7256L139.76 60.5544ZM142.873 59.7467C143.644 59.4503 144.368 59.1454 144.994 58.8321L140.522 49.8879C140.295 50.0013 139.899 50.1764 139.283 50.4133L142.873 59.7467ZM145.408 58.6C146.337 58.0197 147.184 57.2623 147.867 56.3062L139.729 50.4938C139.879 50.2844 140.033 50.1669 140.108 50.12L145.408 58.6ZM147.594 56.654C148.005 56.1749 148.443 55.6163 148.806 55.0125L140.231 49.8675C140.26 49.8188 140.263 49.8208 140.218 49.88C140.176 49.9362 140.106 50.024 140.002 50.146L147.594 56.654ZM148.806 55.0125C149.373 54.0666 149.66 53.0832 149.788 52.1871L139.888 50.7729C139.91 50.6235 139.983 50.28 140.231 49.8675L148.806 55.0125ZM149.788 52.1871C149.842 51.808 149.918 51.2297 149.918 50.68H139.918C139.918 50.6317 139.919 50.5931 139.92 50.5665C139.921 50.5396 139.922 50.5197 139.923 50.5081C139.924 50.4863 139.925 50.4829 139.923 50.5025C139.921 50.521 139.918 50.5528 139.912 50.5998C139.906 50.6464 139.898 50.7038 139.888 50.7729L149.788 52.1871ZM149.769 51.8927C149.94 51.2093 149.998 50.5522 149.998 49.96H139.998C139.998 49.9012 140.003 49.724 140.067 49.4673L149.769 51.8927ZM149.93 49.138L149.85 48.658L139.986 50.302L140.066 50.782L149.93 49.138ZM149.914 49.2718C149.816 46.9171 148.986 44.6736 147.286 42.8603L139.99 49.6997C139.985 49.6944 139.971 49.6783 139.955 49.6519C139.938 49.6254 139.925 49.599 139.916 49.577C139.907 49.5554 139.907 49.5484 139.91 49.562C139.912 49.5763 139.919 49.6166 139.922 49.6882L149.914 49.2718ZM147.401 42.9875C145.959 41.3398 144.123 40.2552 142.074 39.6962L139.443 49.3438C139.739 49.4248 139.824 49.5135 139.875 49.5725L147.401 42.9875ZM142.274 39.7554C140.922 39.3253 139.595 38.9957 138.338 38.8386L137.098 48.7614C137.548 48.8177 138.247 48.968 139.242 49.2846L142.274 39.7554ZM138.338 38.8386C137.192 38.6953 136.045 38.6551 134.906 38.7311L135.571 48.7089C136.031 48.6782 136.538 48.6914 137.098 48.7614L138.338 38.8386ZM165.966 7.32L167.799 11.972L167.859 11.9483L167.919 11.9229L165.966 7.32ZM171.246 7.56L168.956 12.0049L168.983 12.0187L169.01 12.0321L171.246 7.56ZM174.526 11.72L169.623 12.7006L169.715 13.1603L169.891 13.5949L174.526 11.72ZM180.126 25.16L175.534 27.1366L179.868 37.2082L184.63 27.3315L180.126 25.16ZM186.606 11.72L191.11 13.8915L191.23 13.6436L191.321 13.3841L186.606 11.72ZM190.366 7.96L192.107 12.6471L192.143 12.6338L192.178 12.62L190.366 7.96ZM195.886 7.96L198.547 3.72681L198.208 3.51358L197.839 3.35709L195.886 7.96ZM199.486 12.2L194.728 13.735L194.75 13.8039L194.774 13.872L199.486 12.2ZM198.846 17.4L194.482 14.9609L194.405 15.0982L194.337 15.24L198.846 17.4ZM185.166 45.96L180.657 43.8L180.522 44.0821L180.423 44.3789L185.166 45.96ZM182.686 48.84L185.336 53.08L185.336 53.08L182.686 48.84ZM178.686 49.56L179.811 44.688L179.256 44.56H178.686V49.56ZM175.086 48.44L171.988 52.3644L172.053 52.4159L172.12 52.4653L175.086 48.44ZM173.086 45.16L177.958 44.0357L177.876 43.6802L177.743 43.3404L173.086 45.16ZM161.646 15.88L156.779 17.0252L156.86 17.3698L156.989 17.6996L161.646 15.88ZM162.126 10.76L157.654 8.52393L157.624 8.58435L157.595 8.64557L162.126 10.76ZM174.286 37.4L177.888 40.8682L177.888 40.8682L174.286 37.4ZM179.486 35.24L180.355 30.3161L179.924 30.24H179.486V35.24ZM184.046 37.72L187.726 34.3347L187.726 34.3347L184.046 37.72ZM183.886 67.64L187.272 71.3197L183.886 67.64ZM174.126 67.64L170.591 71.1755L170.628 71.2131L170.667 71.2499L174.126 67.64ZM167.919 11.9229C168.257 11.7797 168.463 11.7506 168.956 12.0049L173.536 3.11513C170.51 1.55606 167.196 1.36695 164.014 2.71709L167.919 11.9229ZM169.01 12.0321C169.356 12.2052 169.471 12.3397 169.5 12.3758C169.522 12.4033 169.579 12.4778 169.623 12.7006L179.429 10.7394C178.731 7.24951 176.572 4.63266 173.482 3.08786L169.01 12.0321ZM169.891 13.5949C171.823 18.3718 173.704 22.8859 175.534 27.1366L184.719 23.1834C182.922 19.0074 181.069 14.5616 179.161 9.8451L169.891 13.5949ZM184.63 27.3315L191.11 13.8915L182.102 9.5485L175.622 22.9885L184.63 27.3315ZM191.321 13.3841C191.448 13.026 191.574 12.845 192.107 12.6471L188.625 3.27287C185.425 4.46163 183.045 6.78735 181.891 10.0559L191.321 13.3841ZM192.178 12.62C192.988 12.3054 193.472 12.367 193.934 12.5629L197.839 3.35709C194.781 2.05967 191.585 2.12131 188.554 3.29998L192.178 12.62ZM193.225 12.1932C194.372 12.9138 194.643 13.4732 194.728 13.735L204.245 10.665C203.263 7.62009 201.134 5.35289 198.547 3.72681L193.225 12.1932ZM194.774 13.872C194.809 13.971 194.815 14.0362 194.804 14.1292C194.79 14.2441 194.731 14.5143 194.482 14.9609L203.211 19.8391C204.785 17.0232 205.356 13.7898 204.198 10.5279L194.774 13.872ZM194.337 15.24L180.657 43.8L189.676 48.12L203.356 19.56L194.337 15.24ZM180.423 44.3789C180.457 44.2776 180.498 44.234 180.477 44.2574C180.448 44.2914 180.329 44.4172 180.036 44.6L185.336 53.08C187.322 51.839 189.076 50.041 189.91 47.5411L180.423 44.3789ZM180.036 44.6C179.952 44.6525 179.896 44.678 179.867 44.6894C179.84 44.7003 179.832 44.7006 179.84 44.6991C179.849 44.6975 179.859 44.697 179.863 44.6972C179.867 44.6973 179.851 44.6974 179.811 44.688L177.562 54.432C180.325 55.0696 183.007 54.5355 185.336 53.08L180.036 44.6ZM178.686 44.56C178.253 44.56 178.119 44.4637 178.052 44.4147L172.12 52.4653C174.08 53.9097 176.346 54.56 178.686 54.56V44.56ZM178.184 44.5156C178.156 44.4931 178.05 44.435 177.958 44.0357L168.214 46.2843C168.762 48.6583 169.99 50.7869 171.988 52.3644L178.184 44.5156ZM177.743 43.3404L166.303 14.0604L156.989 17.6996L168.429 46.9796L177.743 43.3404ZM166.513 14.7348C166.329 13.9503 166.413 13.3979 166.657 12.8744L157.595 8.64557C156.346 11.3221 156.11 14.1831 156.779 17.0252L166.513 14.7348ZM166.598 12.9961C166.813 12.5668 167.115 12.2416 167.799 11.972L164.134 2.66796C161.298 3.78504 159.039 5.75319 157.654 8.52393L166.598 12.9961ZM177.206 42.36C177.206 41.8843 177.328 41.4493 177.888 40.8682L170.685 33.9318C168.471 36.2307 167.206 39.1023 167.206 42.36H177.206ZM177.888 40.8682C178.29 40.4506 178.703 40.24 179.486 40.24V30.24C176.109 30.24 173.056 31.4694 170.685 33.9318L177.888 40.8682ZM178.617 40.1639C179.369 40.2966 179.896 40.5934 180.367 41.1053L187.726 34.3347C185.743 32.1799 183.23 30.8234 180.355 30.3161L178.617 40.1639ZM180.367 41.1053C180.772 41.5457 180.886 41.8942 180.886 42.36H190.886C190.886 39.3058 189.774 36.561 187.726 34.3347L180.367 41.1053ZM180.886 42.36V63H190.886V42.36H180.886ZM180.886 63C180.886 63.5163 180.77 63.7125 180.501 63.9603L187.272 71.3197C189.669 69.1142 190.886 66.217 190.886 63H180.886ZM180.501 63.9603C180.251 64.1903 179.802 64.48 178.686 64.48V74.48C181.837 74.48 184.855 73.5431 187.272 71.3197L180.501 63.9603ZM178.686 64.48C178.226 64.48 177.943 64.372 177.586 64.0301L170.667 71.2499C172.87 73.3614 175.626 74.48 178.686 74.48V64.48ZM177.662 64.1045C177.321 63.764 177.206 63.4898 177.206 63H167.206C167.206 66.1368 168.371 68.956 170.591 71.1755L177.662 64.1045ZM177.206 63V42.36H167.206V63H177.206Z" fill="#AC767B"/>
<defs>
<linearGradient id="paint0_linear" x1="109" y1="-9" x2="109" y2="123" gradientUnits="userSpaceOnUse">
<stop offset="0.28125" stop-color="white" stop-opacity="0"/>
<stop offset="0.625" stop-color="#F3A6AC"/>
</linearGradient>
</defs>
</svg>
